<svg width="1200" height="175" viewBox="0 150 1200 175" fill="none" xmlns="http://www.w3.org/2000/svg">
<g clip-path="url(#clip0_220_3)">
<rect x="401" y="175" width="400" height="150" fill="#F6D44E"/>
<rect x="1" y="225" width="400" height="100" fill="#EA7836"/>
<rect x="801" y="244" width="400" height="80" fill="#EE8426"/>
<path d="M76.8389 200H401V225H1L76.8389 200Z" fill="#E57635"/>
<path d="M76.8389 200H401V225H1L76.8389 200Z" fill="#E57635"/>
<path d="M1125.16 219H801V244H1201L1125.16 219Z" fill="#E3812B"/>
<path d="M1125.16 219H801V244H1201L1125.16 219Z" fill="#E3812B"/>
<path d="M744.667 150H463.333L400 175H800L744.667 150Z" fill="#EAC948"/>
<path d="M744.667 150H463.333L400 175H800L744.667 150Z" fill="#EAC948"/>
<path d="M626.875 311H578.062V299.562H590.062V232.438H578.062V221H614.875V299.562H626.875V311Z" fill="#FFFEFE"/>
<path d="M230.844 263.797C230.844 266.578 230.469 268.984 229.719 271.016C228.969 273.016 227.953 274.734 226.672 276.172C225.391 277.609 223.875 278.828 222.125 279.828C220.406 280.797 218.562 281.656 216.594 282.406C214.625 283.156 212.578 283.828 210.453 284.422C208.359 285.016 206.281 285.641 204.219 286.297C202.156 286.953 200.172 287.703 198.266 288.547C196.359 289.391 194.641 290.438 193.109 291.688C191.578 292.906 190.266 294.391 189.172 296.141C188.078 297.859 187.328 299.938 186.922 302.375H230.844V311H166.906C167.594 306.688 168.578 302.969 169.859 299.844C171.141 296.688 172.625 293.984 174.312 291.734C176 289.484 177.828 287.609 179.797 286.109C181.797 284.578 183.844 283.297 185.938 282.266C188.031 281.203 190.141 280.328 192.266 279.641C194.391 278.922 196.438 278.234 198.406 277.578C200.375 276.922 202.203 276.234 203.891 275.516C205.609 274.766 207.094 273.844 208.344 272.75C209.625 271.656 210.625 270.328 211.344 268.766C212.062 267.172 212.422 265.203 212.422 262.859C212.422 260.734 212.062 258.875 211.344 257.281C210.625 255.688 209.641 254.359 208.391 253.297C207.141 252.234 205.656 251.438 203.938 250.906C202.25 250.375 200.438 250.109 198.5 250.109C196.469 250.109 194.578 250.484 192.828 251.234C191.109 251.984 189.547 253.047 188.141 254.422C186.766 255.766 185.562 257.391 184.531 259.297C183.531 261.203 182.766 263.328 182.234 265.672L167.844 257.703C169.125 255.078 170.938 252.797 173.281 250.859C175.656 248.922 178.281 247.312 181.156 246.031C184.031 244.719 187.016 243.75 190.109 243.125C193.234 242.469 196.188 242.141 198.969 242.141C201.656 242.141 204.312 242.25 206.938 242.469C209.562 242.688 212.047 243.094 214.391 243.688C216.766 244.281 218.953 245.094 220.953 246.125C222.953 247.156 224.688 248.484 226.156 250.109C227.625 251.703 228.766 253.625 229.578 255.875C230.422 258.125 230.844 260.766 230.844 263.797Z" fill="#FFFEFE"/>
<path d="M999.25 311.906C997.396 311.906 995.385 311.688 993.219 311.25C991.052 310.833 988.948 310.198 986.906 309.344C984.865 308.469 983.01 307.385 981.344 306.094C979.677 304.802 978.417 303.281 977.562 301.531L988.719 296.25C988.719 297.688 989.01 299.042 989.594 300.312C990.198 301.562 990.99 302.656 991.969 303.594C992.948 304.531 994.062 305.271 995.312 305.812C996.583 306.354 997.896 306.625 999.25 306.625C1000.54 306.625 1001.8 306.438 1003.03 306.062C1004.26 305.667 1005.34 305.094 1006.28 304.344C1007.24 303.594 1008.01 302.677 1008.59 301.594C1009.18 300.49 1009.47 299.229 1009.47 297.812C1009.47 296.25 1009.2 294.917 1008.66 293.812C1008.14 292.688 1007.41 291.771 1006.47 291.062C1005.55 290.354 1004.47 289.833 1003.22 289.5C1001.99 289.167 1000.67 289 999.25 289H993.156V283.688H999.25C1000.23 283.688 1001.18 283.562 1002.09 283.312C1003.03 283.062 1003.85 282.677 1004.56 282.156C1005.29 281.635 1005.88 280.99 1006.31 280.219C1006.75 279.427 1006.97 278.51 1006.97 277.469C1006.97 276.302 1006.77 275.323 1006.38 274.531C1005.98 273.74 1005.43 273.104 1004.72 272.625C1004.03 272.125 1003.22 271.771 1002.28 271.562C1001.34 271.333 1000.33 271.219 999.25 271.219C998.208 271.219 997.198 271.354 996.219 271.625C995.24 271.896 994.375 272.302 993.625 272.844C992.875 273.385 992.271 274.073 991.812 274.906C991.354 275.719 991.125 276.677 991.125 277.781L982.219 271.25C983.094 270.167 984.219 269.24 985.594 268.469C986.969 267.698 988.438 267.083 990 266.625C991.583 266.146 993.177 265.802 994.781 265.594C996.406 265.365 997.896 265.25 999.25 265.25C1000.5 265.25 1001.82 265.323 1003.22 265.469C1004.64 265.594 1006.03 265.823 1007.41 266.156C1008.78 266.49 1010.1 266.938 1011.38 267.5C1012.65 268.062 1013.76 268.771 1014.72 269.625C1015.68 270.479 1016.44 271.5 1017 272.688C1017.58 273.875 1017.88 275.26 1017.88 276.844C1017.88 277.802 1017.67 278.74 1017.25 279.656C1016.83 280.552 1016.29 281.385 1015.62 282.156C1014.96 282.927 1014.2 283.615 1013.34 284.219C1012.49 284.802 1011.62 285.26 1010.75 285.594C1012.21 285.906 1013.6 286.427 1014.94 287.156C1016.27 287.865 1017.44 288.75 1018.44 289.812C1019.46 290.854 1020.26 292.052 1020.84 293.406C1021.45 294.76 1021.75 296.229 1021.75 297.812C1021.75 299.833 1021.41 301.594 1020.72 303.094C1020.05 304.573 1019.15 305.833 1018 306.875C1016.88 307.917 1015.55 308.771 1014.03 309.438C1012.53 310.083 1010.95 310.594 1009.28 310.969C1007.61 311.323 1005.92 311.562 1004.19 311.688C1002.46 311.833 1000.81 311.906 999.25 311.906Z" fill="#FFFEFE"/>
</g>
<defs>
<clipPath id="clip0_220_3">
<rect width="1200" height="500" fill="none"/>
</clipPath>
</defs>
</svg>
