<svg width="500" height="500" viewBox="0 0 500 500" fill="none" xmlns="http://www.w3.org/2000/svg">
<path d="M500 250C500 388.071 388.071 500 250 500C111.929 500 0 388.071 0 250C0 111.929 111.929 0 250 0C388.071 0 500 111.929 500 250Z" fill="#FFFEFE"/>
<path d="M137.5 116.848C137.5 113.851 139.108 111.143 141.812 109.85C163.843 99.3187 264.455 54.7136 307 96.6331C333.235 122.483 382.394 117.57 403.479 113.978C408.611 113.103 413.5 117.013 413.5 122.219V264.033C413.5 268.193 410.327 271.639 406.172 271.821C385.734 272.713 328.218 273.076 307 250.633C268.786 210.215 181.829 248.57 149.714 264.865C144.216 267.655 137.5 263.67 137.5 257.505V116.848Z" fill="url(#paint0_linear_237_45)"/>
<rect x="124" y="96.1331" width="22" height="347" rx="5" fill="url(#paint1_linear_237_45)"/>
<defs>
<linearGradient id="paint0_linear_237_45" x1="164.194" y1="95.1759" x2="201.446" y2="286.537" gradientUnits="userSpaceOnUse">
<stop offset="0.403846" stop-color="#98E63F"/>
<stop offset="1" stop-color="#4BEE42"/>
</linearGradient>
<linearGradient id="paint1_linear_237_45" x1="126.128" y1="125.198" x2="203.438" y2="142.816" gradientUnits="userSpaceOnUse">
<stop offset="0.403846" stop-color="#98E63F"/>
<stop offset="1" stop-color="#4BEE42"/>
</linearGradient>
</defs>
</svg>

