<svg width="500" height="500" viewBox="0 0 500 500" fill="none" xmlns="http://www.w3.org/2000/svg">
<path d="M500 250C500 388.071 388.071 500 250 500C111.929 500 0 388.071 0 250C0 111.929 111.929 0 250 0C388.071 0 500 111.929 500 250Z" fill="url(#paint0_linear_236_43)"/>
<g clip-path="url(#clip0_236_43)">
<path d="M432.953 119.095L433.012 119.169L432.894 118.998C432.908 119.012 432.916 119.035 432.931 119.049C405.279 80.3843 365.654 50.8794 319.39 35.938L319.449 35.9521C297.579 28.8039 274.203 25 250 25C225.804 25 202.42 28.8039 180.558 35.96L180.61 35.938C134.353 50.8794 94.7289 80.3852 67.0759 119.057L67.1049 119.02C40.6656 155.743 25.0809 200.929 25 249.667V249.697V250C24.993 300.215 41.4777 346.694 69.3804 384.066C96.6124 420.758 134.76 448.876 179.14 463.559C179.126 463.559 179.11 463.559 179.103 463.551L179.414 463.655L179.163 463.566C201.483 471.034 225.331 475 250 475C274.742 475 298.605 471.034 320.97 463.478C365.269 448.854 403.498 420.736 430.729 384.03L430.715 384.052C458.537 346.68 475.007 300.208 475 250V249.697V249.675C474.926 200.988 459.445 155.816 432.953 119.095ZM257.578 91.8039L299.175 61.6258C302.831 62.5785 306.479 63.5383 310.039 64.7055L310.099 64.7274C350.056 77.6307 384.392 103.178 408.322 136.65L408.382 136.731C410.582 139.789 412.621 142.972 414.645 146.155L398.875 194.444L309.656 223.61L257.579 185.632L257.578 91.8039ZM91.6562 136.688L91.6853 136.651C115.616 103.179 149.951 77.6315 189.909 64.7283L189.968 64.7063C193.528 63.5392 197.177 62.5794 200.832 61.6267L242.45 91.8268V185.633L190.388 223.611L101.199 194.451L85.3791 146.155C87.4023 142.951 89.4476 139.76 91.6562 136.688ZM100.881 375.019C98.4071 372.071 95.9471 369.102 93.6505 366.009L93.6206 365.972C69.4841 333.607 55.259 293.568 55.252 250V249.727C55.259 245.909 55.4954 242.156 55.7169 238.397L96.5228 208.831L185.765 238.013L205.715 298.996L150.55 375.018L100.881 375.019ZM322.114 430.781C318.592 432.177 315.061 433.581 311.443 434.77L311.331 434.807C292.106 441.306 271.529 444.749 250 444.749C228.559 444.749 207.96 441.307 188.705 434.867L188.594 434.83C184.983 433.634 181.467 432.238 177.952 430.834L162.751 383.963L217.959 307.881H281.957L336.915 385.018L322.114 430.781ZM444.748 250C444.74 293.576 430.515 333.621 406.445 365.986L406.431 366.009C404.134 369.102 401.675 372.064 399.2 375.019H348.365L294.293 299.13L314.28 238.005L403.529 208.823L444.283 238.389C444.505 242.141 444.741 245.9 444.749 249.719V250H444.748Z" fill="#FCFCFC"/>
<path d="M321.021 463.463C320.999 463.471 320.984 463.471 320.97 463.478C320.947 463.485 320.925 463.493 320.91 463.501L321.021 463.463Z" fill="#FCFCFC"/>
</g>
<defs>
<linearGradient id="paint0_linear_236_43" x1="1.29805e-07" y1="235.68" x2="500" y2="264.32" gradientUnits="userSpaceOnUse">
<stop stop-color="#96DD6F"/>
<stop offset="1" stop-color="#00FF15"/>
</linearGradient>
<clipPath id="clip0_236_43">
<rect width="450" height="450" fill="white" transform="translate(25 25)"/>
</clipPath>
</defs>
</svg>
